<svg version="1.1" id="Layer_1" xmlns="http://www.w3.org/2000/svg" xmlns:xlink="http://www.w3.org/1999/xlink" x="0px" y="0px"
	 width="100%" viewBox="0 0 523 477" enable-background="new 0 0 523 477" xml:space="preserve">
<path fill="#F8F9FA" opacity="1.000000" stroke="none" 
	d="
M345.000000,478.000000 
	C230.000031,478.000000 115.500053,478.000000 1.000062,478.000000 
	C1.000041,319.000061 1.000041,160.000137 1.000021,1.000147 
	C175.333237,1.000098 349.666473,1.000098 523.999756,1.000049 
	C523.999878,159.999863 523.999878,318.999725 523.999939,477.999786 
	C464.500000,478.000000 405.000000,478.000000 345.000000,478.000000 
M176.127090,233.823151 
	C161.578461,233.848755 148.944199,228.715530 137.464600,219.984207 
	C125.411057,210.816269 113.007637,202.160019 98.338707,197.480713 
	C69.248116,188.200974 46.129196,199.354019 35.370808,227.956085 
	C30.822723,240.047501 30.155012,252.468445 31.523005,265.289032 
	C35.704151,304.474091 67.122147,330.363953 106.390404,326.597900 
	C112.349846,326.026367 118.323769,325.605804 124.208260,325.862000 
	C122.030502,330.126495 119.809509,334.369537 117.684074,338.659943 
	C113.376495,347.355194 115.936104,357.125458 124.177284,362.169006 
	C131.246826,366.495544 138.476227,370.587891 145.815598,374.439514 
	C154.712173,379.108398 164.519211,376.303497 169.569763,367.731689 
	C176.226242,356.434235 182.579895,344.958313 189.243958,333.665436 
	C193.022446,327.262421 197.161209,321.072021 201.955887,314.789856 
	C208.954224,314.695129 215.952576,314.600372 223.451752,315.069031 
	C227.327164,326.466614 233.953491,335.353333 245.731079,339.585541 
	C246.083984,339.712402 246.229568,340.416229 246.186172,341.579590 
	C245.120056,344.002502 244.236908,346.526978 242.957474,348.831451 
	C235.848801,361.635437 229.208801,374.511719 227.279541,389.413727 
	C225.056763,406.582855 233.249786,422.294800 249.067123,429.171875 
	C261.092133,434.400116 273.517273,435.888275 286.568115,433.498535 
	C308.571350,429.469452 327.325684,420.114197 339.595581,400.839813 
	C344.775665,392.702606 348.179413,383.434570 353.027832,374.830078 
	C354.125519,374.791168 355.429504,374.343933 356.288239,374.777863 
	C363.200409,378.270844 369.451080,376.507935 375.614288,372.798584 
	C381.154114,369.464447 386.744080,366.206024 392.403320,363.079620 
	C402.499146,357.502258 405.565369,347.373749 399.902557,337.304138 
	C395.020050,328.622040 389.867828,320.091736 384.975403,311.415039 
	C379.119812,301.030090 373.413574,290.560944 367.895905,279.351715 
	C367.962891,278.297058 368.029846,277.242432 368.483826,275.494751 
	C374.688629,236.023514 395.756775,206.838516 430.304749,187.400070 
	C443.310669,180.082291 457.173065,174.298065 470.284241,167.152679 
	C481.983398,160.776840 490.888153,151.408920 495.024628,138.410919 
	C500.115570,122.413643 496.182709,107.674660 486.765778,94.569511 
	C470.063324,71.325424 441.360016,64.294800 417.517883,83.184662 
	C407.723206,90.944870 400.922699,101.177757 394.944702,112.036911 
	C385.720856,128.792191 374.737549,144.156281 358.752167,155.237793 
	C348.440002,162.386444 336.965729,166.744720 324.428497,164.178314 
	C304.728210,160.145599 291.057617,144.777847 287.717804,124.816437 
	C286.788239,119.260887 285.769989,113.651802 284.040253,108.310867 
	C277.974060,89.579941 253.986877,80.517006 237.417252,90.768524 
	C226.587753,97.468658 224.379379,107.813698 225.581345,119.873672 
	C226.915024,133.255463 227.726440,146.730240 227.897263,160.175552 
	C228.069901,173.761795 225.081589,186.901566 218.880188,199.490997 
	C218.097473,199.400131 217.265427,199.450577 216.539520,199.197052 
	C206.828827,195.805756 199.200500,198.305801 193.731583,206.885529 
	C191.591812,210.242447 189.824600,213.835541 187.716629,217.214325 
	C184.218246,222.821793 180.581604,228.342972 176.127090,233.823151 
z"/>
<path fill="#203657" opacity="1.000000" stroke="none" 
	d="
M352.390625,374.680542 
	C348.179413,383.434570 344.775665,392.702606 339.595581,400.839813 
	C327.325684,420.114197 308.571350,429.469452 286.568115,433.498535 
	C273.517273,435.888275 261.092133,434.400116 249.067123,429.171875 
	C233.249786,422.294800 225.056763,406.582855 227.279541,389.413727 
	C229.208801,374.511719 235.848801,361.635437 242.957474,348.831451 
	C244.236908,346.526978 245.120056,344.002502 246.655304,341.198303 
	C249.256638,340.901093 251.389832,340.965363 253.520874,341.072357 
	C270.285278,341.914215 283.639252,331.931366 287.525208,315.642914 
	C291.176392,300.338531 282.680115,284.357025 267.741455,278.429657 
	C252.756561,272.484009 236.046799,278.403778 227.796005,291.972656 
	C223.472733,299.082489 222.953308,306.652435 222.950912,314.505615 
	C215.952576,314.600372 208.954224,314.695129 201.606964,314.453552 
	C201.639206,313.206818 201.925690,312.241699 202.415344,311.393951 
	C216.205215,287.520050 229.596359,263.400940 244.002350,239.904175 
	C251.037674,228.429291 248.557404,215.511795 235.727798,209.620239 
	C229.945435,206.964905 224.847061,202.820129 219.438339,199.351135 
	C225.081589,186.901566 228.069901,173.761795 227.897263,160.175552 
	C227.726440,146.730240 226.915024,133.255463 225.581345,119.873672 
	C224.379379,107.813698 226.587753,97.468658 237.417252,90.768524 
	C253.986877,80.517006 277.974060,89.579941 284.040253,108.310867 
	C285.769989,113.651802 286.788239,119.260887 287.717804,124.816437 
	C291.057617,144.777847 304.728210,160.145599 324.428497,164.178314 
	C336.965729,166.744720 348.440002,162.386444 358.752167,155.237793 
	C374.737549,144.156281 385.720856,128.792191 394.944702,112.036911 
	C400.922699,101.177757 407.723206,90.944870 417.517883,83.184662 
	C441.360016,64.294800 470.063324,71.325424 486.765778,94.569511 
	C496.182709,107.674660 500.115570,122.413643 495.024628,138.410919 
	C490.888153,151.408920 481.983398,160.776840 470.284241,167.152679 
	C457.173065,174.298065 443.310669,180.082291 430.304749,187.400070 
	C395.756775,206.838516 374.688629,236.023514 367.938721,275.762909 
	C364.524933,271.679108 361.636871,267.339722 358.792145,262.972107 
	C354.883850,256.971527 351.008362,250.949600 347.016724,244.771912 
	C346.914673,244.606979 346.795410,244.237885 346.863037,243.857544 
	C343.238037,237.356857 339.545471,231.236542 335.928528,225.084442 
	C336.004150,225.052658 335.854858,225.129654 335.898926,224.755005 
	C331.764526,216.858490 327.684082,209.279694 323.363251,201.840515 
	C321.413025,198.482819 318.984100,195.403183 316.864044,192.091888 
	C316.955719,191.986389 316.759125,192.186752 316.817017,191.820160 
	C314.067902,186.270309 311.394562,181.008331 308.404755,175.932785 
	C306.553864,172.790588 304.221954,169.931732 301.991638,166.796616 
	C301.877319,166.647552 301.721893,166.305466 301.775757,165.928619 
	C299.828857,161.981384 298.297760,158.024216 295.737061,154.914932 
	C288.741150,146.420181 275.829376,145.742249 267.885925,154.329025 
	C267.202454,154.728943 266.744873,154.992172 265.910309,155.201492 
	C261.092407,157.844254 256.651489,160.540924 252.093201,163.161621 
	C251.975830,163.085648 252.201859,163.253616 251.838058,163.199844 
	C249.390152,164.671814 246.803787,165.816528 245.307831,167.788437 
	C238.383194,176.916275 240.930344,190.718521 250.936523,199.318909 
	C251.208832,199.887756 251.341156,200.224091 251.377197,200.934372 
	C253.952515,206.049530 256.612671,210.797241 259.297882,215.530777 
	C267.904297,230.702423 276.485748,245.888535 285.177734,261.011078 
	C286.203339,262.795532 287.854919,264.220184 289.145813,265.913879 
	C289.075287,266.016083 289.228851,265.815918 289.176178,266.178345 
	C290.492615,268.626434 291.861694,270.712067 293.150543,272.909302 
	C293.070312,273.020905 293.246582,272.808044 293.174927,273.168701 
	C294.004578,274.723602 294.905884,275.917908 295.842316,277.116394 
	C295.877411,277.120575 295.866669,277.190430 295.882141,277.553741 
	C299.020142,283.193146 302.142639,288.469269 305.194672,293.831055 
	C305.124207,293.916779 305.299713,293.780975 305.233887,294.131165 
	C306.068726,295.677307 306.969360,296.873260 307.978943,298.224640 
	C308.087921,298.380035 308.232635,298.730896 308.186371,299.105652 
	C310.387634,303.005646 312.635162,306.530945 314.984772,310.221130 
	C315.086853,310.386047 315.218872,310.750824 315.179077,311.118256 
	C316.501190,313.591736 317.863098,315.697815 319.144348,317.911407 
	C319.063751,318.018951 319.237213,317.809692 319.185730,318.179749 
	C321.511566,322.284271 323.888947,326.018768 326.177246,329.847595 
	C326.088165,329.941895 326.293610,329.783447 326.220947,330.145752 
	C327.623199,332.727661 329.098114,334.947266 330.716125,337.411377 
	C330.988251,338.010651 331.117249,338.365326 331.192322,339.046692 
	C331.684113,339.949982 332.229858,340.526611 332.883362,341.280212 
	C332.991150,341.457184 333.122498,341.850311 333.102936,342.220459 
	C337.028107,349.075867 340.972839,355.561157 345.004883,362.217560 
	C345.092255,362.388641 345.203430,362.756348 345.164612,363.128479 
	C346.086823,364.999695 347.047821,366.498810 348.139618,368.311981 
	C349.643799,370.644196 351.017181,372.662384 352.390625,374.680542 
z"/>
<path fill="#F96472" opacity="1.000000" stroke="none" 
	d="
M352.709229,374.755310 
	C351.017181,372.662384 349.643799,370.644196 348.311096,368.086945 
	C347.302338,365.950684 346.252899,364.353516 345.203430,362.756348 
	C345.203430,362.756348 345.092255,362.388641 345.014709,361.855652 
	C340.998932,354.831879 337.060699,348.341095 333.122498,341.850311 
	C333.122498,341.850311 332.991150,341.457184 332.910583,340.968445 
	C332.302063,339.893127 331.774170,339.306580 331.246246,338.720032 
	C331.117249,338.365326 330.988251,338.010651 330.770844,337.065948 
	C329.219482,334.245117 327.756561,332.014282 326.293610,329.783447 
	C326.293610,329.783447 326.088165,329.941895 326.143829,329.493652 
	C323.878723,325.300201 321.557983,321.554932 319.237213,317.809692 
	C319.237213,317.809692 319.063751,318.018951 319.123596,317.554382 
	C317.861908,314.976807 316.540375,312.863831 315.218872,310.750824 
	C315.218872,310.750824 315.086853,310.386047 314.991394,309.860962 
	C312.674805,305.800903 310.453735,302.265900 308.232635,298.730896 
	C308.232635,298.730896 308.087921,298.380035 307.995819,297.885132 
	C307.035706,296.187134 306.167725,294.984070 305.299713,293.780975 
	C305.299713,293.780975 305.124207,293.916779 305.171356,293.467377 
	C302.101227,287.742126 298.983948,282.466278 295.866669,277.190430 
	C295.866669,277.190430 295.877411,277.120575 295.866760,276.775574 
	C294.986298,275.223053 294.116425,274.015564 293.246582,272.808044 
	C293.246582,272.808044 293.070312,273.020905 293.133484,272.551880 
	C291.874023,269.993896 290.551453,267.904907 289.228851,265.815918 
	C289.228851,265.815918 289.075287,266.016083 289.118225,265.553314 
	C288.537292,263.731506 288.017273,262.312561 287.273468,261.022675 
	C279.457306,247.467926 271.668823,233.896469 263.736389,220.409805 
	C259.794403,213.707672 255.570084,207.171616 251.473480,200.560440 
	C251.341156,200.224091 251.208832,199.887756 250.952362,198.959106 
	C248.874756,194.724396 246.994568,191.040329 244.950989,187.449234 
	C241.743057,181.812164 242.262756,176.171463 245.421036,170.913391 
	C247.147308,168.039383 249.907776,165.786575 252.201859,163.253616 
	C252.201859,163.253616 251.975830,163.085648 252.455322,163.139099 
	C257.385651,160.546860 261.836487,157.901138 266.287292,155.255402 
	C266.744873,154.992172 267.202454,154.728943 268.260315,154.312637 
	C269.929199,153.708252 271.026306,153.313995 272.062073,152.796829 
	C282.302307,147.683441 290.654419,149.936722 296.921936,159.472473 
	C298.450012,161.797394 300.118164,164.030273 301.721893,166.305466 
	C301.721893,166.305466 301.877319,166.647552 301.985901,167.158279 
	C306.982697,175.841583 311.870911,184.014175 316.759125,192.186752 
	C316.759125,192.186752 316.955719,191.986389 316.884644,192.459656 
	C318.982056,197.002426 320.986176,201.170563 323.355682,205.119476 
	C327.401367,211.861954 331.676239,218.466934 335.854858,225.129654 
	C335.854858,225.129654 336.004150,225.052658 335.941254,225.450989 
	C339.517365,231.978836 343.156372,238.108368 346.795410,244.237885 
	C346.795410,244.237885 346.914673,244.606979 347.010040,245.133514 
	C351.097534,252.748810 354.988525,259.897156 359.118042,266.904938 
	C361.778412,271.419464 364.789001,275.727631 367.642609,280.128296 
	C373.413574,290.560944 379.119812,301.030090 384.975403,311.415039 
	C389.867828,320.091736 395.020050,328.622040 399.902557,337.304138 
	C405.565369,347.373749 402.499146,357.502258 392.403320,363.079620 
	C386.744080,366.206024 381.154114,369.464447 375.614288,372.798584 
	C369.451080,376.507935 363.200409,378.270844 356.288239,374.777863 
	C355.429504,374.343933 354.125519,374.791168 352.709229,374.755310 
z"/>
<path fill="#1F3657" opacity="1.000000" stroke="none" 
	d="
M124.290985,325.115417 
	C118.323769,325.605804 112.349846,326.026367 106.390404,326.597900 
	C67.122147,330.363953 35.704151,304.474091 31.523005,265.289032 
	C30.155012,252.468445 30.822723,240.047501 35.370808,227.956085 
	C46.129196,199.354019 69.248116,188.200974 98.338707,197.480713 
	C113.007637,202.160019 125.411057,210.816269 137.464600,219.984207 
	C148.944199,228.715530 161.578461,233.848755 176.533142,234.223572 
	C176.529602,235.532120 176.194519,236.483185 175.699432,237.342041 
	C164.235947,257.228760 152.812729,277.139069 141.252289,296.969391 
	C135.736130,306.431610 129.953125,315.738281 124.290985,325.115417 
z"/>
<path fill="#FA6572" opacity="1.000000" stroke="none" 
	d="
M124.249619,325.488708 
	C129.953125,315.738281 135.736130,306.431610 141.252289,296.969391 
	C152.812729,277.139069 164.235947,257.228760 175.699432,237.342041 
	C176.194519,236.483185 176.529602,235.532120 176.971207,234.262253 
	C180.581604,228.342972 184.218246,222.821793 187.716629,217.214325 
	C189.824600,213.835541 191.591812,210.242447 193.731583,206.885529 
	C199.200500,198.305801 206.828827,195.805756 216.539520,199.197052 
	C217.265427,199.450577 218.097473,199.400131 219.159271,199.421066 
	C224.847061,202.820129 229.945435,206.964905 235.727798,209.620239 
	C248.557404,215.511795 251.037674,228.429291 244.002350,239.904175 
	C229.596359,263.400940 216.205215,287.520050 202.415344,311.393951 
	C201.925690,312.241699 201.639206,313.206818 201.197876,314.451538 
	C197.161209,321.072021 193.022446,327.262421 189.243958,333.665436 
	C182.579895,344.958313 176.226242,356.434235 169.569763,367.731689 
	C164.519211,376.303497 154.712173,379.108398 145.815598,374.439514 
	C138.476227,370.587891 131.246826,366.495544 124.177284,362.169006 
	C115.936104,357.125458 113.376495,347.355194 117.684074,338.659943 
	C119.809509,334.369537 122.030502,330.126495 124.249619,325.488708 
z"/>
<path fill="#F76472" opacity="1.000000" stroke="none" 
	d="
M223.201324,314.787354 
	C222.953308,306.652435 223.472733,299.082489 227.796005,291.972656 
	C236.046799,278.403778 252.756561,272.484009 267.741455,278.429657 
	C282.680115,284.357025 291.176392,300.338531 287.525208,315.642914 
	C283.639252,331.931366 270.285278,341.914215 253.520874,341.072357 
	C251.389832,340.965363 249.256638,340.901093 246.798126,340.834045 
	C246.229568,340.416229 246.083984,339.712402 245.731079,339.585541 
	C233.953491,335.353333 227.327164,326.466614 223.201324,314.787354 
z"/>
<path fill="#6D405C" opacity="1.000000" stroke="none" 
	d="
M367.769257,279.739990 
	C364.789001,275.727631 361.778412,271.419464 359.118042,266.904938 
	C354.988525,259.897156 351.097534,252.748810 347.112122,245.298447 
	C351.008362,250.949600 354.883850,256.971527 358.792145,262.972107 
	C361.636871,267.339722 364.524933,271.679108 367.745239,276.109436 
	C368.029846,277.242432 367.962891,278.297058 367.769257,279.739990 
z"/>
<path fill="#6D405C" opacity="1.000000" stroke="none" 
	d="
M251.377197,200.934372 
	C255.570084,207.171616 259.794403,213.707672 263.736389,220.409805 
	C271.668823,233.896469 279.457306,247.467926 287.273468,261.022675 
	C288.017273,262.312561 288.537292,263.731506 289.188751,265.451111 
	C287.854919,264.220184 286.203339,262.795532 285.177734,261.011078 
	C276.485748,245.888535 267.904297,230.702423 259.297882,215.530777 
	C256.612671,210.797241 253.952515,206.049530 251.377197,200.934372 
z"/>
<path fill="#6D405C" opacity="1.000000" stroke="none" 
	d="
M301.775757,165.928619 
	C300.118164,164.030273 298.450012,161.797394 296.921936,159.472473 
	C290.654419,149.936722 282.302307,147.683441 272.062073,152.796829 
	C271.026306,153.313995 269.929199,153.708252 268.486145,154.175949 
	C275.829376,145.742249 288.741150,146.420181 295.737061,154.914932 
	C298.297760,158.024216 299.828857,161.981384 301.775757,165.928619 
z"/>
<path fill="#6D405C" opacity="1.000000" stroke="none" 
	d="
M251.838058,163.199844 
	C249.907776,165.786575 247.147308,168.039383 245.421036,170.913391 
	C242.262756,176.171463 241.743057,181.812164 244.950989,187.449234 
	C246.994568,191.040329 248.874756,194.724396 250.812393,198.726608 
	C240.930344,190.718521 238.383194,176.916275 245.307831,167.788437 
	C246.803787,165.816528 249.390152,164.671814 251.838058,163.199844 
z"/>
<path fill="#6D405C" opacity="1.000000" stroke="none" 
	d="
M335.898926,224.755005 
	C331.676239,218.466934 327.401367,211.861954 323.355682,205.119476 
	C320.986176,201.170563 318.982056,197.002426 316.792969,192.565155 
	C318.984100,195.403183 321.413025,198.482819 323.363251,201.840515 
	C327.684082,209.279694 331.764526,216.858490 335.898926,224.755005 
z"/>
<path fill="#6D405C" opacity="1.000000" stroke="none" 
	d="
M316.817017,191.820160 
	C311.870911,184.014175 306.982697,175.841583 302.100220,167.307343 
	C304.221954,169.931732 306.553864,172.790588 308.404755,175.932785 
	C311.394562,181.008331 314.067902,186.270309 316.817017,191.820160 
z"/>
<path fill="#6D405C" opacity="1.000000" stroke="none" 
	d="
M333.102905,342.220459 
	C337.060699,348.341095 340.998932,354.831879 344.927368,361.684570 
	C340.972839,355.561157 337.028107,349.075867 333.102905,342.220459 
z"/>
<path fill="#6D405C" opacity="1.000000" stroke="none" 
	d="
M346.863037,243.857544 
	C343.156372,238.108368 339.517365,231.978836 335.865601,225.482758 
	C339.545471,231.236542 343.238037,237.356857 346.863037,243.857544 
z"/>
<path fill="#6D405C" opacity="1.000000" stroke="none" 
	d="
M295.882141,277.553741 
	C298.983948,282.466278 302.101227,287.742126 305.241821,293.381653 
	C302.142639,288.469269 299.020142,283.193146 295.882141,277.553741 
z"/>
<path fill="#6D405C" opacity="1.000000" stroke="none" 
	d="
M265.910309,155.201508 
	C261.836487,157.901138 257.385651,160.546860 252.572693,163.215088 
	C256.651489,160.540924 261.092407,157.844254 265.910309,155.201508 
z"/>
<path fill="#6D405C" opacity="1.000000" stroke="none" 
	d="
M319.185730,318.179749 
	C321.557983,321.554932 323.878723,325.300201 326.232910,329.399353 
	C323.888947,326.018768 321.511566,322.284271 319.185730,318.179749 
z"/>
<path fill="#6D405C" opacity="1.000000" stroke="none" 
	d="
M308.186371,299.105652 
	C310.453735,302.265900 312.674805,305.800903 314.889282,309.696045 
	C312.635162,306.530945 310.387634,303.005646 308.186371,299.105652 
z"/>
<path fill="#6D405C" opacity="1.000000" stroke="none" 
	d="
M326.220947,330.145752 
	C327.756561,332.014282 329.219482,334.245117 330.627686,336.821411 
	C329.098114,334.947266 327.623199,332.727661 326.220947,330.145752 
z"/>
<path fill="#6D405C" opacity="1.000000" stroke="none" 
	d="
M289.176178,266.178345 
	C290.551453,267.904907 291.874023,269.993896 293.213684,272.440308 
	C291.861694,270.712067 290.492615,268.626434 289.176178,266.178345 
z"/>
<path fill="#6D405C" opacity="1.000000" stroke="none" 
	d="
M315.179077,311.118256 
	C316.540375,312.863831 317.861908,314.976807 319.204193,317.446838 
	C317.863098,315.697815 316.501190,313.591736 315.179077,311.118256 
z"/>
<path fill="#6D405C" opacity="1.000000" stroke="none" 
	d="
M345.164642,363.128479 
	C346.252899,364.353516 347.302338,365.950684 348.180298,367.772888 
	C347.047821,366.498810 346.086823,364.999695 345.164642,363.128479 
z"/>
<path fill="#6D405C" opacity="1.000000" stroke="none" 
	d="
M293.174927,273.168701 
	C294.116425,274.015564 294.986298,275.223053 295.831665,276.771362 
	C294.905884,275.917908 294.004578,274.723602 293.174927,273.168701 
z"/>
<path fill="#6D405C" opacity="1.000000" stroke="none" 
	d="
M305.233887,294.131165 
	C306.167725,294.984070 307.035706,296.187134 307.886841,297.729736 
	C306.969360,296.873260 306.068726,295.677307 305.233887,294.131165 
z"/>
<path fill="#6D405C" opacity="1.000000" stroke="none" 
	d="
M331.192322,339.046692 
	C331.774170,339.306580 332.302063,339.893127 332.802795,340.791443 
	C332.229858,340.526611 331.684113,339.949982 331.192322,339.046692 
z"/>
</svg>